<svg width="126" height="42" viewBox="0 0 126 42" fill="none" xmlns="http://www.w3.org/2000/svg">
<g clip-path="url(#clip0_159_372)">
<path d="M41.6901 2.22896L23.2536 13.8694L92.9026 14.6559L68.6357 2.07166L41.6901 2.22896Z" fill="#767F89"/>
<path d="M38.9341 10.0942C38.7387 10.0942 38.5433 10.014 38.403 9.85668C38.143 9.56409 38.1698 9.11735 38.4613 8.8578L45.8028 2.34387C46.0959 2.08432 46.5434 2.11106 46.8034 2.40207C47.0634 2.69466 47.0367 3.1414 46.7451 3.40095L39.4036 9.91488C39.2681 10.0344 39.1011 10.0942 38.9325 10.0942H38.9341Z" fill="#A8AEB4"/>
<path d="M35.8755 20.0954C35.6801 20.0954 35.4847 20.0152 35.3445 19.8579C35.0845 19.5653 35.1113 19.1186 35.4028 18.859L48.1665 7.5332C48.4596 7.27365 48.9071 7.30039 49.1671 7.5914C49.4271 7.88399 49.4003 8.33073 49.1088 8.59028L36.3451 19.9161C36.2096 20.0357 36.0426 20.0954 35.8739 20.0954H35.8755Z" fill="#A8AEB4"/>
<path d="M54.9423 18.6798C54.7469 18.6798 54.5515 18.5996 54.4113 18.4423C54.1513 18.1497 54.178 17.7029 54.4696 17.4434L67.2333 6.11755C67.5264 5.858 67.9739 5.88474 68.2339 6.17575C68.4939 6.46834 68.4671 6.91508 68.1756 7.17463L55.4119 18.5005C55.2764 18.62 55.1093 18.6798 54.9407 18.6798H54.9423Z" fill="#A8AEB4"/>
<path d="M71.1727 10.9719C70.9789 10.9719 70.7851 10.8933 70.6448 10.736C70.3833 10.445 70.4069 9.99824 70.6984 9.73712L76.0403 4.95195C76.3318 4.69082 76.7809 4.71442 77.0409 5.00543C77.3024 5.29644 77.2788 5.74318 76.9873 6.00431L71.6454 10.7895C71.5099 10.9106 71.3413 10.9704 71.1727 10.9704V10.9719Z" fill="#A8AEB4"/>
<path d="M27.0355 41.2403C31.909 41.2403 35.8598 37.2964 35.8598 32.4313C35.8598 27.5662 31.909 23.6223 27.0355 23.6223C22.162 23.6223 18.2112 27.5662 18.2112 32.4313C18.2112 37.2964 22.162 41.2403 27.0355 41.2403Z" fill="#68727C"/>
<path d="M101.254 41.2403C106.128 41.2403 110.078 37.2964 110.078 32.4313C110.078 27.5662 106.128 23.6223 101.254 23.6223C96.3806 23.6223 92.4298 27.5662 92.4298 32.4313C92.4298 37.2964 96.3806 41.2403 101.254 41.2403Z" fill="#68727C"/>
<path d="M26.8778 36.8357C29.3146 36.8357 31.29 34.8638 31.29 32.4312C31.29 29.9987 29.3146 28.0267 26.8778 28.0267C24.4411 28.0267 22.4657 29.9987 22.4657 32.4312C22.4657 34.8638 24.4411 36.8357 26.8778 36.8357Z" fill="#BDC2C7"/>
<path d="M101.097 36.8357C103.533 36.8357 105.509 34.8638 105.509 32.4312C105.509 29.9987 103.533 28.0267 101.097 28.0267C98.6598 28.0267 96.6844 29.9987 96.6844 32.4312C96.6844 34.8638 98.6598 36.8357 101.097 36.8357Z" fill="#BDC2C7"/>
<path d="M124.969 32.3919L121.503 19.1595C121.109 17.8618 120.4 17.0658 119.139 16.7906L91.2386 11.1371L76.5934 4.08201C73.363 2.35167 69.266 0.814819 66.2327 0.814819H41.2568C39.287 0.814819 34.3234 2.42718 32.9446 2.97774L15.7356 9.78111L6.62925 11.1292C5.36863 11.3258 4.46256 12.147 4.26559 13.484L1.42921 32.3966C1.27163 33.7337 2.48813 34.7924 3.79286 34.7924H15.1463C15.1683 33.6912 15.2172 32.7977 15.2172 31.7643C15.2172 25.3793 20.403 20.1836 26.7991 20.1836C33.1951 20.1836 38.381 25.3888 38.381 31.7753C38.381 32.8088 38.4282 33.6928 38.4519 34.7939H89.5241C89.5462 33.6928 89.595 32.7993 89.595 31.7658C89.595 25.3809 94.7809 20.1852 101.177 20.1852C107.573 20.1852 112.759 25.3903 112.759 31.7768C112.759 32.8103 112.806 33.6944 112.83 34.7955H122.607C123.912 34.7955 125.207 33.7337 124.971 32.3966L124.969 32.3919ZM51.0659 12.4537H28.69C27.3853 12.4537 37.3567 6.00426 37.3567 6.00426C38.8001 4.98179 42.0052 3.64471 44.7628 3.64471H50.7508C52.0555 3.64471 53.1144 4.68134 53.1144 5.98538L53.4296 10.0564C53.6139 11.2881 52.3706 12.4553 51.0659 12.4553V12.4537ZM85.6335 13.0829H62.9425C61.6377 13.0829 60.7963 11.9818 60.5788 10.684L59.6334 5.98381C59.6334 4.68134 60.6923 3.64313 61.997 3.64313H63.7902C66.5478 3.64313 71.4327 5.21617 73.2842 6.00269C73.2842 6.00269 86.9383 13.0813 85.6335 13.0813V13.0829Z" fill="#F26A21"/>
<path d="M119.139 16.789L91.2386 11.1355L76.5934 4.08042C73.363 2.35009 69.266 0.813232 66.2327 0.813232H41.2568C39.2871 0.813232 34.3234 2.42559 32.9446 2.97615L15.7356 9.77952L6.62926 11.1276C5.36864 11.3242 4.46257 12.1454 4.2656 13.4824L3.73615 17.0092C7.9592 19.2618 13.2506 21.2501 19.3615 22.8923C21.3737 21.2029 23.9674 20.1836 26.7991 20.1836C31.2254 20.1836 35.0703 22.6768 37.0195 26.3278C44.6116 27.3283 52.8481 27.8757 61.4534 27.8757C72.2033 27.8757 82.378 27.0215 91.4402 25.4973C93.5029 22.304 97.0894 20.1836 101.174 20.1836C103.364 20.1836 105.411 20.7939 107.159 21.8526C111.878 20.3975 116.014 18.7206 119.432 16.8692C119.338 16.8393 119.24 16.8126 119.138 16.7905L119.139 16.789ZM51.0659 12.4537H28.69C27.3853 12.4537 37.3567 6.00424 37.3567 6.00424C38.8001 4.98177 42.0053 3.64469 44.7629 3.64469H50.7508C52.0555 3.64469 53.1144 4.68132 53.1144 5.98537L53.4296 10.0564C53.6139 11.2881 52.3707 12.4553 51.0659 12.4553V12.4537ZM85.6335 13.0829H62.9425C61.6378 13.0829 60.7963 11.9818 60.5788 10.684L59.6334 5.98379C59.6334 4.68132 60.6923 3.64312 61.997 3.64312H63.7903C66.5478 3.64312 71.4327 5.21615 73.2843 6.00267C73.2843 6.00267 86.9383 13.0813 85.6335 13.0813V13.0829Z" fill="#F58C55"/>
<path d="M117.275 21.236L118.799 26.4537H123.157L122.002 21.3665L117.275 21.236Z" fill="white"/>
<path d="M3.87167 16.229H8.75655L7.63933 22.8357H2.92621L3.87167 16.229Z" fill="#FBD4BF"/>
<path d="M102.174 32.3794L102.898 31.6574C103.175 31.3805 103.175 30.9322 102.898 30.6569C102.62 30.3801 102.171 30.3801 101.896 30.6569L101.172 31.3789L100.43 30.6365C100.153 30.3596 99.7052 30.3596 99.4278 30.6365C99.1505 30.9133 99.1505 31.3616 99.4278 31.6369L100.172 32.3794L99.4468 33.103C99.1694 33.3798 99.1694 33.8282 99.4468 34.1034C99.5854 34.2419 99.7666 34.3111 99.9479 34.3111C100.129 34.3111 100.31 34.2419 100.449 34.1034L101.174 33.3798L101.911 34.1176C102.05 34.256 102.231 34.3252 102.412 34.3252C102.594 34.3252 102.775 34.256 102.913 34.1176C103.191 33.8407 103.191 33.3924 102.913 33.1171L102.176 32.3794H102.174Z" fill="#263544"/>
<path d="M101.172 27.2921C98.3626 27.2921 96.0778 29.573 96.0778 32.3777C96.0778 35.1825 98.3626 37.4634 101.172 37.4634C103.982 37.4634 106.267 35.1825 106.267 32.3777C106.267 29.573 103.982 27.2921 101.172 27.2921ZM101.172 36.0492C99.1442 36.0492 97.4959 34.4022 97.4959 32.3793C97.4959 30.3564 99.1458 28.7094 101.172 28.7094C103.199 28.7094 104.848 30.3564 104.848 32.3793C104.848 34.4022 103.199 36.0492 101.172 36.0492Z" fill="#263544"/>
<path d="M3.79289 35.42H15.8396L15.857 34.7295C15.8648 34.4227 15.8743 34.1128 15.8838 33.7966C15.9042 33.1265 15.9263 32.4344 15.9263 31.7234C15.9263 25.738 20.8033 20.8695 26.7991 20.8695C32.7949 20.8695 37.6719 25.738 37.6719 31.7234C37.6719 32.4344 37.694 33.1265 37.7145 33.7966C37.7239 34.1128 37.7349 34.4227 37.7412 34.7295L37.7586 35.42H90.2159L90.2332 34.7295C90.2411 34.4227 90.2506 34.1128 90.26 33.7966C90.2805 33.1265 90.3026 32.4344 90.3026 31.7234C90.3026 25.738 95.1796 20.8695 101.175 20.8695C107.171 20.8695 112.048 25.738 112.048 31.7234C112.048 32.4344 112.07 33.1265 112.091 33.7966C112.1 34.1128 112.111 34.4227 112.118 34.7295L112.135 35.42H122.606C123.558 35.42 124.514 34.9859 125.1 34.289C125.597 33.6991 125.798 32.9677 125.668 32.2299L125.663 32.2016L122.19 18.9598L122.182 18.9331C121.698 17.3364 120.751 16.4068 119.281 16.0843L91.4686 10.4528L76.918 3.40563C72.9612 1.2899 68.9682 0.0267565 66.2327 0.0267565H56.162C56.0832 0.00630709 56.0012 -0.00470415 55.9161 0.00316102C55.8736 0.00630709 55.8326 0.0157453 55.7917 0.0267565H41.2568C39.057 0.0267565 33.8759 1.80271 32.683 2.27934L15.5513 9.0717L6.52054 10.4182C4.90538 10.6699 3.80077 11.7757 3.5644 13.3724L0.728017 32.2472L0.724866 32.2692C0.635047 33.0322 0.872988 33.7762 1.39772 34.3645C1.98548 35.0252 2.88209 35.42 3.79289 35.42ZM4.45156 17.0155H7.9151L7.05945 21.9816C6.99327 22.367 7.2517 22.7335 7.63776 22.7996C7.67873 22.8059 7.71813 22.8106 7.7591 22.8106C8.09789 22.8106 8.39728 22.5668 8.45716 22.2223L9.45462 16.4288C9.49086 16.2227 9.43256 16.0119 9.29862 15.853C9.16311 15.6942 8.96613 15.6014 8.75656 15.6014H4.66429L4.96841 13.58C4.98574 13.462 5.01096 13.3488 5.04247 13.2418H18.0552C18.4475 13.2418 18.7643 12.9256 18.7643 12.5339C18.7643 12.1423 18.4475 11.8261 18.0552 11.8261H6.69388C6.70806 11.8229 6.72066 11.8198 6.73485 11.8182L15.8412 10.4607L15.9216 10.4481L33.2078 3.5944C34.8198 2.95103 39.5014 1.44249 41.2568 1.44249H55.3284C55.6688 5.36878 57.38 25.1717 57.4746 26.7573C57.5156 27.4495 57.3753 27.9717 57.0554 28.3099C56.7403 28.6434 56.236 28.8133 55.5569 28.8133H52.0902C51.6978 28.8133 51.3811 29.1295 51.3811 29.5211C51.3811 29.9128 51.6978 30.229 52.0902 30.229H55.5569C56.6268 30.229 57.5014 29.9018 58.0876 29.2805C58.6769 28.656 58.9542 27.7546 58.8912 26.674C58.7951 25.0632 57.1216 5.70226 56.7529 1.44249H66.2327C68.7476 1.44249 72.4948 2.64586 76.2577 4.66091L91.0085 11.8056L111.914 16.0387L98.6132 15.3119C98.2208 15.2883 97.8883 15.5904 97.8663 15.9805C97.8442 16.3706 98.1452 16.7041 98.536 16.7261L119.651 17.8791C119.664 17.8791 119.678 17.8791 119.691 17.8791C119.757 17.8791 119.82 17.8665 119.88 17.8508C120.308 18.1607 120.606 18.6373 120.819 19.331L121.161 20.6335H117.325C117.097 20.6335 116.883 20.7436 116.749 20.9292C116.616 21.1148 116.58 21.3524 116.654 21.5695L118.124 25.8953C118.225 26.1895 118.501 26.3751 118.796 26.3751C118.871 26.3751 118.948 26.3625 119.024 26.3373C119.394 26.2115 119.593 25.8104 119.468 25.4391L118.315 22.0492H121.531L123.346 28.9706H119.687C119.295 28.9706 118.978 29.2868 118.978 29.6784C118.978 30.0701 119.295 30.3863 119.687 30.3863H123.717L124.271 32.5005C124.32 32.8182 124.232 33.1139 124.01 33.3782C123.69 33.7589 123.138 34.0043 122.603 34.0043H113.514C113.51 33.9209 113.509 33.836 113.506 33.751C113.485 33.0919 113.463 32.4124 113.463 31.7234C113.463 24.9578 107.95 19.4537 101.172 19.4537C94.3948 19.4537 88.8812 24.9578 88.8812 31.7234C88.8812 32.4124 88.8592 33.0935 88.8387 33.751C88.8355 33.836 88.8339 33.9193 88.8308 34.0043H39.1405C39.1374 33.9209 39.1358 33.836 39.1326 33.751C39.1122 33.0919 39.0901 32.4124 39.0901 31.7234C39.0901 24.9578 33.5765 19.4537 26.7991 19.4537C20.0217 19.4537 14.5081 24.9578 14.5081 31.7234C14.5081 32.4124 14.4861 33.0935 14.4656 33.751C14.4624 33.836 14.4608 33.9193 14.4577 34.0043H3.79289C3.28076 34.0043 2.78124 33.7872 2.45664 33.4238C2.28015 33.2256 2.0816 32.8969 2.13203 32.4454L2.44088 30.3863H9.07014C9.4625 30.3863 9.77923 30.0701 9.77923 29.6784C9.77923 29.2868 9.4625 28.9706 9.07014 28.9706H2.65518L4.45156 17.0155Z" fill="#263544"/>
<path d="M85.736 16.8063C85.7423 16.8881 86.3663 25.0002 86.4703 26.7573C86.5113 27.4494 86.3711 27.9717 86.0512 28.3099C85.736 28.6433 85.2318 28.8132 84.5526 28.8132H81.0859C80.6936 28.8132 80.3768 29.1294 80.3768 29.5211C80.3768 29.9128 80.6936 30.229 81.0859 30.229H84.5526C85.6226 30.229 86.4971 29.9018 87.0833 29.2804C87.6726 28.6559 87.95 27.7546 87.8869 26.6739C87.7814 24.9058 87.1574 16.7811 87.1511 16.6993C87.1211 16.3092 86.7792 16.015 86.39 16.0481C85.9992 16.078 85.7076 16.4177 85.7376 16.8078L85.736 16.8063Z" fill="#263544"/>
<path d="M40.5871 39.9818H32.7744C35.0482 38.22 36.5169 35.4688 36.5169 32.3793C36.5169 27.0735 32.1929 22.7571 26.8779 22.7571C21.5628 22.7571 17.2389 27.0735 17.2389 32.3793C17.2389 35.4688 18.7059 38.22 20.9814 39.9818H0.709096C0.316729 39.9818 0 40.298 0 40.6897C0 41.0814 0.316729 41.3975 0.709096 41.3975H23.5215C24.5678 41.7861 25.6976 42 26.8779 42C28.0581 42 29.188 41.7861 30.2343 41.3975H40.5871C40.9794 41.3975 41.2962 41.0814 41.2962 40.6897C41.2962 40.298 40.9794 39.9818 40.5871 39.9818ZM26.8779 40.5843C22.346 40.5843 18.6571 36.9034 18.6571 32.3778C18.6571 27.8521 22.3444 24.1712 26.8779 24.1712C31.4114 24.1712 35.0987 27.8521 35.0987 32.3778C35.0987 36.9034 31.4114 40.5843 26.8779 40.5843Z" fill="#263544"/>
<path d="M27.88 32.3794L28.6033 31.6574C28.8807 31.3805 28.8807 30.9322 28.6033 30.6569C28.326 30.3801 27.8769 30.3801 27.6011 30.6569L26.8779 31.3789L26.1357 30.6365C25.8583 30.3596 25.4092 30.3596 25.1335 30.6365C24.8561 30.9133 24.8561 31.3616 25.1335 31.6369L25.8772 32.3794L25.1524 33.103C24.8751 33.3798 24.8751 33.8282 25.1524 34.1034C25.2911 34.2419 25.4723 34.3111 25.6535 34.3111C25.8347 34.3111 26.0159 34.2419 26.1546 34.1034L26.8794 33.3798L27.6169 34.1176C27.7556 34.256 27.9368 34.3252 28.118 34.3252C28.2992 34.3252 28.4804 34.256 28.6191 34.1176C28.8964 33.8407 28.8964 33.3924 28.6191 33.1171L27.8816 32.3794H27.88Z" fill="#263544"/>
<path d="M26.8779 27.2921C24.0683 27.2921 21.7834 29.573 21.7834 32.3777C21.7834 35.1825 24.0683 37.4634 26.8779 37.4634C29.6875 37.4634 31.9724 35.1825 31.9724 32.3777C31.9724 29.573 29.6875 27.2921 26.8779 27.2921ZM26.8779 36.0492C24.8499 36.0492 23.2016 34.4022 23.2016 32.3793C23.2016 30.3564 24.8515 28.7094 26.8779 28.7094C28.9043 28.7094 30.5542 30.3564 30.5542 32.3793C30.5542 34.4022 28.9043 36.0492 26.8779 36.0492Z" fill="#263544"/>
<path d="M125.291 39.9818H107.067C109.341 38.22 110.81 35.4688 110.81 32.3793C110.81 27.0735 106.486 22.7571 101.171 22.7571C95.8556 22.7571 91.5317 27.0735 91.5317 32.3793C91.5317 35.4688 93.0003 38.22 95.2741 39.9818H86.8312C86.4388 39.9818 86.1221 40.298 86.1221 40.6897C86.1221 41.0814 86.4388 41.3975 86.8312 41.3975H97.8143C98.8606 41.7861 99.9904 42 101.171 42C102.351 42 103.481 41.7861 104.527 41.3975H125.291C125.683 41.3975 126 41.0814 126 40.6897C126 40.298 125.683 39.9818 125.291 39.9818ZM101.172 40.5843C96.6403 40.5843 92.9515 36.9034 92.9515 32.3778C92.9515 27.8521 96.6387 24.1712 101.172 24.1712C105.706 24.1712 109.393 27.8521 109.393 32.3778C109.393 36.9034 105.706 40.5843 101.172 40.5843Z" fill="#263544"/>
<path d="M27.0355 17.3302H33.9688C34.3612 17.3302 34.6779 17.014 34.6779 16.6223C34.6779 16.2306 34.3612 15.9144 33.9688 15.9144H27.0355C26.6431 15.9144 26.3264 16.2306 26.3264 16.6223C26.3264 17.014 26.6431 17.3302 27.0355 17.3302Z" fill="#263544"/>
<path d="M69.4236 15.9144H62.4902C62.0979 15.9144 61.7811 16.2306 61.7811 16.6223C61.7811 17.014 62.0979 17.3302 62.4902 17.3302H69.4236C69.816 17.3302 70.1327 17.014 70.1327 16.6223C70.1327 16.2306 69.816 15.9144 69.4236 15.9144Z" fill="#263544"/>
<path d="M28.69 13.083H51.0659C51.9783 13.083 52.8859 12.6646 53.491 11.963C54.0047 11.3684 54.2332 10.6511 54.1339 9.9385L53.8219 5.89738C53.8062 4.21895 52.4337 2.85828 50.7492 2.85828H44.7613C41.6381 2.85828 38.3243 4.37625 36.9565 5.33895C36.7737 5.4585 34.6102 6.86007 32.4939 8.31513C31.1955 9.20704 30.1665 9.94637 29.4353 10.5095C28.1275 11.5178 27.7209 11.9504 27.8927 12.5246C27.9683 12.7825 28.222 13.083 28.6884 13.083H28.69ZM37.7428 6.5203L37.768 6.503C39.0759 5.57805 42.1108 4.27401 44.7644 4.27401H50.7523C51.6647 4.27401 52.4069 5.01491 52.4069 5.92569L52.7236 10.0691L52.7299 10.1194C52.7914 10.5347 52.5613 10.8729 52.4195 11.0381C52.0854 11.425 51.567 11.6673 51.0675 11.6673H30.2532C31.8274 10.456 34.8891 8.36547 37.7428 6.5203Z" fill="#263544"/>
<path d="M62.9425 13.7122H85.6336C86.0732 13.7122 86.3395 13.4243 86.4088 13.138C86.5617 12.5135 86.0953 12.1612 84.1933 11.0365C83.1596 10.4261 81.7115 9.61444 79.8899 8.62658C76.7951 6.94815 73.6435 5.31377 73.612 5.29646L73.5632 5.27287C71.6423 4.45646 66.6424 2.85669 63.7918 2.85669H61.9986C60.3047 2.85669 58.8676 4.23309 58.8676 5.9241V5.99489L59.854 10.7722C60.1581 12.5576 61.3872 13.7106 62.9441 13.7106L62.9425 13.7122ZM61.997 4.27399H63.7903C66.3068 4.27399 71.0215 5.73849 72.9817 6.5659C76.9526 8.625 81.2624 10.9468 83.5472 12.2965H62.9425C61.934 12.2965 61.4219 11.3825 61.2785 10.5284L60.3441 5.86276C60.3771 4.98186 61.1067 4.27557 61.997 4.27557V4.27399Z" fill="#263544"/>
</g>
<defs>
<clipPath id="clip0_159_372">
<rect width="126" height="42" fill="white"/>
</clipPath>
</defs>
</svg>
