<svg width="117" height="50" viewBox="0 0 117 50" fill="none" xmlns="http://www.w3.org/2000/svg">
<g clip-path="url(#clip0_159_2)">
<path d="M72.6835 36.3932C72.3735 37.9583 71.7273 39.511 70.3587 40.4235C68.9902 41.3359 65.0117 44.0625 65.0117 44.0625H44.3212C43.0379 44.0625 41.9964 42.9715 41.9964 41.6756L39.6716 26.7878C39.6716 25.4918 40.7131 24.4306 41.9964 24.4306L73.7684 13.9393C75.0517 13.9393 76.0932 14.988 76.0932 16.2839L72.6835 36.3932Z" fill="#CFD3D6"/>
<path d="M94.5365 22.2284C87.3467 22.2284 81.5177 28.115 81.5177 35.3758C81.5177 42.6366 87.3467 48.5231 94.5365 48.5231C101.726 48.5231 107.555 42.6366 107.555 35.3758C107.555 28.115 101.726 22.2284 94.5365 22.2284ZM94.5365 44.6603C89.4592 44.6603 85.3427 40.5032 85.3427 35.3758C85.3427 30.2483 89.4592 26.0912 94.5365 26.0912C99.6138 26.0912 103.73 30.2483 103.73 35.3758C103.73 40.5032 99.6138 44.6603 94.5365 44.6603Z" fill="#68727C"/>
<path d="M25.7229 23.7936C18.8757 23.7936 13.3241 29.4 13.3241 36.3149C13.3241 43.2298 18.8757 48.8362 25.7229 48.8362C32.5702 48.8362 38.1218 43.2298 38.1218 36.3149C38.1218 29.4 32.5702 23.7936 25.7229 23.7936ZM25.7229 45.4977C20.7014 45.4977 16.6299 41.386 16.6299 36.3149C16.6299 31.2438 20.7014 27.1321 25.7229 27.1321C30.7445 27.1321 34.8159 31.2438 34.8159 36.3149C34.8159 41.386 30.7445 45.4977 25.7229 45.4977Z" fill="#68727C"/>
<path d="M73.7684 13.9377L41.9964 24.429C40.7131 24.429 39.6716 25.4902 39.6716 26.7862L40.3768 31.3001C44.3491 32.2564 48.7848 32.7917 53.4653 32.7917C61.3448 32.7917 68.5299 31.2766 73.973 28.7864L76.0932 16.2824C76.0932 14.9864 75.0517 13.9377 73.7684 13.9377Z" fill="#DCDFE1"/>
<path d="M72.1736 10.0578C74.9308 10.6713 74.3109 13.437 74.1652 15.1712C73.6894 20.8449 69.4118 18.3093 64.8041 18.3923C60.1297 18.4768 54.7765 20.0404 54.4712 18.8102C53.6963 15.6799 69.4164 9.44424 72.1721 10.0578H72.1736Z" fill="#F26A21"/>
<path d="M72.1736 10.0578C70.3851 9.66023 63.1348 12.1473 58.4775 14.7971C60.8333 15.4905 63.5781 15.888 66.5089 15.888C69.4397 15.888 71.9148 15.528 74.19 14.8973C74.3635 13.1584 74.7882 10.64 72.1736 10.0578Z" fill="#F58C55"/>
<path d="M3.87 36.4323C4.68367 34.9846 8.13209 17.22 27.0403 17.22C37.2693 17.22 41.299 25.9458 41.299 25.9458L38.5867 27.9022C38.5867 27.9022 33.7558 21.0938 27.0016 21.0938C15.9852 21.0938 12.8173 27.9273 10.4181 33.5368C8.94577 36.9802 3.87 36.4323 3.87 36.4323Z" fill="#F26A21"/>
<path d="M27.0402 17.22C19.9218 17.22 14.9963 19.7383 11.5758 22.9547C13.541 23.1723 15.6395 23.3163 17.8264 23.3742C20.0876 21.9796 23.037 21.0938 27.0015 21.0938C28.9078 21.0938 30.6607 21.6353 32.1935 22.4147C34.1882 22.0626 35.9783 21.6243 37.5002 21.1219C35.2064 19.1044 31.7921 17.22 27.0402 17.22Z" fill="#F58C55"/>
<path d="M78.9077 40.7239C78.9077 40.7239 76.4683 27.8332 85.7782 22.3066C96.5885 15.8895 104.88 24.1066 104.88 24.1066L107.709 23.324C107.709 23.324 97.2472 10.6462 83.7634 19.6459C71.9101 27.5578 76.0653 40.8272 76.0653 40.8272L78.9062 40.7224L78.9077 40.7239Z" fill="#F26A21"/>
<path d="M83.7649 19.6459C82.835 20.2673 82.0028 20.9215 81.2604 21.5992C82.6134 21.9107 84.1199 22.1596 85.7364 22.3333C85.7519 22.3239 85.7658 22.3145 85.7813 22.3051C92.2225 18.4814 97.7694 19.8541 101.201 21.5867C102.52 21.2815 103.693 20.9168 104.68 20.5067C100.629 17.3905 92.8905 13.5559 83.7665 19.6443L83.7649 19.6459Z" fill="#F58C55"/>
<path d="M78.6767 8.13099C78.6767 8.13099 78.39 4.03026 83.6394 3.2915C83.7633 7.35936 84.0423 16.4326 84.0423 16.4326L78.6767 8.13099Z" fill="#F26A21"/>
<path d="M83.6394 3.2915C78.39 4.03026 78.6767 8.13099 78.6767 8.13099L78.917 8.5035C79.54 8.62401 80.2049 8.68975 80.8961 8.68975C81.9376 8.68975 82.9202 8.54106 83.7913 8.27968C83.7339 6.41244 83.6781 4.59528 83.6378 3.2915H83.6394Z" fill="#F58C55"/>
<path d="M96.5249 35.2975C96.5249 36.3931 95.6461 37.2806 94.5612 37.2806C93.4763 37.2806 92.5975 36.3931 92.5975 35.2975C92.5975 34.2019 93.4763 33.3145 94.5612 33.3145C95.6461 33.3145 96.5249 34.2019 96.5249 35.2975Z" fill="#F26A21"/>
<path d="M58.7363 32.5977C58.4806 33.8936 57.2314 34.9846 55.9481 34.9846H51.1436C49.8603 34.9846 49.0265 33.8936 49.2822 32.5977L50.6492 27.021C51.0103 25.6124 52.3029 24.0895 53.6156 23.6465L58.4201 22.0767C59.7034 22.0767 60.5372 23.1457 60.2815 24.4416L58.7363 32.5977Z" fill="#F26A21"/>
<path d="M60.277 23.5182C60.0879 22.6746 59.3796 22.0767 58.4202 22.0767L53.6157 23.6465C52.3014 24.0895 51.0104 25.6124 50.6493 27.021L49.9642 29.818C55.2709 29.796 59.6369 27.0554 60.2785 23.5182H60.277Z" fill="#F58C55"/>
<path d="M76.7906 16.2808C76.7906 15.0459 76.0591 13.9832 75.0114 13.5042C75.0811 11.8624 74.7758 9.91687 72.3239 9.37063C72.1472 9.3315 71.9458 9.31116 71.7102 9.31116C68.237 9.31116 56.8657 13.8204 54.3518 17.0712C53.8342 17.7411 53.6466 18.3828 53.7954 18.9807C53.8698 19.2797 54.0357 19.4878 54.2418 19.635L50.612 20.8323L49.4605 17.414C51.356 16.8944 53.3243 16.345 53.47 16.3043C53.8419 16.201 54.0589 15.8128 53.9566 15.4372C53.8543 15.0616 53.47 14.8424 53.098 14.9457C53.0344 14.963 46.7994 16.7019 45.7377 16.9523C44.9117 17.1479 44.8915 17.1432 43.9043 16.8944L43.5772 16.813C42.2723 16.489 38.8502 15.4325 38.8161 15.4216C38.4472 15.3073 38.0582 15.517 37.9451 15.8895C37.8319 16.262 38.0396 16.6549 38.4085 16.7692C38.5511 16.813 41.9034 17.8491 43.2456 18.1825L43.5679 18.2639C44.1832 18.4188 44.5366 18.5018 44.9132 18.5018C45.2232 18.5018 45.5502 18.4454 46.0555 18.3265C46.384 18.2482 47.1698 18.0401 48.1106 17.7834L49.2853 21.2706L41.877 23.7154C41.5903 23.8249 41.3113 23.9814 41.0494 24.1286C40.4884 23.2818 39.6453 22.1768 38.4829 21.0687C36.3053 18.9901 32.5516 16.514 27.0387 16.514C19.7157 16.514 13.7813 19.1059 9.39986 24.2178C5.88634 28.3169 4.35664 32.8903 3.62046 35.0878C3.47477 35.5229 3.32444 35.9737 3.26244 36.0833C3.1462 36.2899 3.14155 36.5419 3.24849 36.7532C3.35543 36.9645 3.56156 37.1069 3.79559 37.1319C3.80954 37.1319 4.13346 37.1679 4.63406 37.1679C6.13432 37.1679 9.76408 36.8408 11.0567 33.8153C13.2249 28.7442 16.196 21.798 27 21.798C30.9831 21.798 34.3107 24.3696 36.234 26.2807L35.4483 27.4702C33.0491 24.7828 29.5774 23.0893 25.7214 23.0893C18.5006 23.0893 12.6251 29.0228 12.6251 36.3149C12.6251 36.8862 12.6654 37.4481 12.7351 37.999L8.19253 38.0554C7.80816 38.0632 7.50129 38.4044 7.50904 38.7926C7.51679 39.176 7.75547 39.3779 8.22042 39.3654C8.68383 39.3529 12.9676 39.3075 12.9676 39.3075C13.0978 39.8741 13.2636 40.4282 13.4636 40.965L8.19408 41.0292C7.80971 41.0354 7.50284 41.3767 7.50904 41.7648C7.51524 42.1498 7.72757 42.3392 8.21887 42.3392C8.71018 42.3392 14.0339 42.2704 14.0339 42.2704C14.7267 43.6493 15.6489 44.8904 16.7539 45.9391H0.697434C0.311521 45.9391 0 46.2537 0 46.6434C0 47.0331 0.311521 47.3477 0.697434 47.3477H18.3611C18.4061 47.3477 18.451 47.3431 18.4944 47.3337C20.5681 48.7251 23.0525 49.539 25.7229 49.539C28.3933 49.539 30.8622 48.7314 32.9313 47.3477H44.2437C44.6296 47.3477 44.9411 47.0331 44.9411 46.6434C44.9411 46.2537 44.6296 45.9391 44.2437 45.9391H34.6904C35.9008 44.7887 36.8943 43.4098 37.6026 41.8712L41.3067 41.8086C41.3966 43.4114 42.7124 44.687 44.3212 44.687H65.224L65.4007 44.568C65.441 44.5414 69.3916 41.8712 70.7446 40.9713C72.079 40.0823 72.9609 38.5875 73.3685 36.5309L76.7922 16.3403V16.2808H76.7906ZM55.4522 17.9383C57.6701 15.0694 68.6136 10.7198 71.7102 10.7198C71.8745 10.7198 71.9721 10.7339 72.0248 10.7448C73.756 11.1299 73.7436 12.4916 73.5297 14.5247C73.508 14.7298 73.4879 14.927 73.4724 15.1117C73.2569 17.6801 72.2914 18.1825 70.695 18.1825C69.9929 18.1825 69.1793 18.0761 68.3176 17.9649C67.2466 17.8256 66.0253 17.6644 64.7947 17.6895C62.8993 17.7239 60.9263 17.9916 59.1858 18.2279C57.8064 18.4157 56.6146 18.5769 55.7947 18.5769C55.446 18.5769 55.2507 18.5456 55.15 18.5206C55.1732 18.3703 55.2802 18.1637 55.4538 17.9383H55.4522ZM18.6509 40.8742C18.3224 40.3562 18.0465 39.8021 17.8342 39.2167L33.7124 38.9131C33.5202 39.5141 33.2645 40.0854 32.9514 40.6191L18.6509 40.8742ZM31.9735 41.9683C30.436 43.7009 28.2042 44.7934 25.7229 44.7934C23.2416 44.7934 21.1942 43.787 19.6661 42.1764L31.9735 41.9683ZM17.3289 36.3149C17.3289 31.6398 21.0951 27.8364 25.7245 27.8364C28.6366 27.8364 31.2048 29.3421 32.7112 31.621L30.6453 34.7498C30.6127 34.7998 30.5895 34.8531 30.5693 34.9063L23.4446 34.6965C23.0556 34.6903 22.7379 34.9908 22.7271 35.3805C22.7162 35.7687 23.0184 36.0942 23.4043 36.1052L34.0472 36.4182C34.0472 36.4182 34.0611 36.4182 34.0673 36.4182C34.0844 36.4182 34.0999 36.4151 34.1169 36.4135C34.1123 36.8064 34.0828 37.193 34.027 37.5717L17.4792 37.9036C17.3816 37.3886 17.3289 36.858 17.3289 36.3133V36.3149ZM34.3603 31.6632L35.535 29.8852C35.8094 30.3109 36.0589 30.7523 36.279 31.214L35.0949 33.4522C34.9074 32.8277 34.6609 32.2298 34.3603 31.6648V31.6632ZM34.0193 35.008L32.1874 34.9548L33.4613 33.0249C33.7233 33.651 33.9123 34.3162 34.0193 35.008ZM35.177 38.8833L37.1531 38.8458C37.026 39.4327 36.8555 40.0009 36.6447 40.5518L34.5509 40.5894C34.8097 40.0463 35.0189 39.475 35.177 38.8833ZM35.4359 37.5436C35.4855 37.1398 35.5149 36.7312 35.5149 36.3133C35.5149 36.1021 35.5056 35.8939 35.4932 35.6857L36.9408 32.9482C37.2554 34.0157 37.4259 35.1442 37.4259 36.3118C37.4259 36.714 37.4057 37.1116 37.367 37.5029L35.4359 37.542V37.5436ZM37.8288 31.2704L39.2516 28.5814L40.6372 37.4403L38.768 37.4778C38.8006 37.0944 38.8223 36.7078 38.8223 36.3149C38.8223 34.5291 38.4674 32.8262 37.8304 31.2704H37.8288ZM14.9948 24.7045C12.5244 27.1149 11.1187 30.1263 9.77958 33.2566C8.87136 35.3821 6.20406 35.7233 4.87274 35.7561C4.89599 35.6873 4.91924 35.6153 4.94558 35.5386C6.404 31.1812 10.8397 17.9227 27.0434 17.9227C31.0823 17.9227 34.5958 19.3125 37.4894 22.0563C39.0222 23.5103 39.9676 24.98 40.3969 25.7313L38.7293 26.9333C37.3732 25.2492 32.9437 20.3878 27.0031 20.3878C21.8979 20.3878 17.9706 21.7996 14.9948 24.703V24.7045ZM37.2213 27.3293C37.5406 27.6924 37.7684 27.9804 37.8986 28.1495L37.0679 29.7193C36.8524 29.3421 36.6184 28.9759 36.3673 28.6237L37.2213 27.3309V27.3293ZM14.0231 36.3149C14.0231 29.7991 19.2724 24.4979 25.7245 24.4979C29.2984 24.4979 32.502 26.1273 34.6501 28.6847L33.5388 30.3673C31.7503 27.9757 28.9125 26.4278 25.7245 26.4278C20.3263 26.4278 15.934 30.8635 15.934 36.3149C15.934 36.8659 15.9805 37.4058 16.0673 37.9333L14.1393 37.9724C14.0634 37.4309 14.0215 36.8784 14.0215 36.3165L14.0231 36.3149ZM14.3966 39.2809L16.3727 39.2433C16.5509 39.8209 16.7818 40.3749 17.0561 40.9024L14.9576 40.94C14.7314 40.4062 14.5438 39.8522 14.3966 39.2809ZM25.7245 48.1319C21.4112 48.1319 17.6389 45.7622 15.6101 42.2453L17.8683 42.2078C19.6537 44.6306 22.5116 46.2036 25.7245 46.2036C28.9373 46.2036 32.0014 44.5132 33.7713 41.9385L36.0341 41.901C34.058 45.6073 30.1788 48.1335 25.7245 48.1335V48.1319ZM38.5821 38.8192L40.8448 38.7754L41.1099 40.472L38.1357 40.5252C38.3201 39.9711 38.4705 39.4014 38.5821 38.8176V38.8192ZM71.9985 36.2648C71.6621 37.9583 70.9988 39.1134 69.9759 39.7974C68.7856 40.5909 65.5883 42.7493 64.8009 43.2815H44.3227C43.4749 43.2815 42.7775 42.6241 42.7031 41.7883L63.0883 41.4424L63.2728 41.4784L63.4309 41.3845C63.592 41.2874 67.3969 39.018 68.7453 38.0695C70.2719 36.9942 70.6702 36.0113 70.9058 34.4618C71.6218 29.7209 73.0741 21.7871 73.088 21.7088C73.1577 21.3269 72.9082 20.9591 72.5285 20.8887C72.1488 20.8167 71.7861 21.0718 71.7164 21.4537C71.7024 21.5335 70.2471 29.4892 69.5264 34.252C69.3296 35.5574 69.0739 36.1271 67.9471 36.9206C66.794 37.733 63.6246 39.6425 62.8791 40.0885L42.5187 40.4516L42.2537 38.7534L62.4715 38.3668L62.6358 38.4028L62.7815 38.3246C62.8776 38.2745 65.1373 37.0725 66.498 36.1146L66.6949 35.9768C68.0308 35.0471 68.1641 34.7544 68.7329 31.5052C69.5636 26.7643 70.2952 21.9436 70.3014 21.8966C70.3603 21.5116 70.0983 21.1532 69.7171 21.0937C69.3373 21.0358 68.9809 21.2987 68.922 21.6838C68.9142 21.7323 68.1858 26.5373 67.3582 31.261C66.8514 34.1581 66.8328 34.1722 65.9013 34.8202L65.6983 34.9642C64.5979 35.7389 62.7954 36.7297 62.2747 37.0114L42.0429 37.4168L40.4775 27.4091L41.705 26.5233C41.9778 26.326 42.0739 25.9598 41.9313 25.653C41.922 25.6327 41.8646 25.5106 41.7577 25.3118C41.8042 25.2821 41.8538 25.2523 41.9065 25.221L42.108 25.1303L49.7364 22.6119L50.6446 25.3103C50.3408 25.7939 50.1068 26.3151 49.9735 26.8379L48.6065 32.3942L48.5988 32.427C48.4345 33.2613 48.6205 34.0846 49.1102 34.6871C49.5969 35.2866 50.3191 35.6168 51.1452 35.6168H55.9497C57.574 35.6168 59.099 34.3365 59.4229 32.6978L60.9666 24.5637C61.1309 23.7294 60.9449 22.9062 60.4551 22.3036C59.9685 21.7041 59.2463 21.3739 58.4202 21.3739H58.3101L53.394 22.975C52.7989 23.1754 52.2115 23.5557 51.6892 24.0425L51.0599 22.1752L58.3597 19.7664C58.6837 19.7242 59.0184 19.6788 59.3671 19.6318C61.0704 19.4002 63 19.1388 64.8149 19.1059C65.9463 19.0856 67.0606 19.2312 68.1347 19.3705C69.0429 19.4878 69.8999 19.6005 70.6904 19.6005C73.3205 19.6005 74.6053 18.2561 74.8579 15.24C74.8626 15.1899 74.8672 15.1367 74.8719 15.0866C75.1803 15.3746 75.3771 15.7815 75.3926 16.2354L71.9954 36.2742L71.9985 36.2648ZM51.325 27.1791C51.6334 25.977 52.7849 24.6607 53.8311 24.307L58.5209 22.7794C58.8774 22.8013 59.1781 22.9453 59.3764 23.1895C59.6027 23.4681 59.6818 23.8562 59.5965 24.2866L58.0529 32.4208C57.8622 33.3865 56.8982 34.2019 55.9482 34.2019H51.1436C50.7438 34.2019 50.4043 34.0548 50.1874 33.7887C49.9626 33.5133 49.8836 33.1314 49.9626 32.7119L51.3234 27.1791H51.325Z" fill="#263544"/>
<path d="M45.0697 25.1505C43.1758 25.1505 41.6337 26.7063 41.6337 28.6205C41.6337 30.5347 43.1742 32.0904 45.0697 32.0904C46.9652 32.0904 48.5057 30.5347 48.5057 28.6205C48.5057 26.7063 46.9652 25.1505 45.0697 25.1505ZM45.0697 30.6802C43.9445 30.6802 43.0285 29.7552 43.0285 28.6189C43.0285 27.4826 43.9445 26.5576 45.0697 26.5576C46.1949 26.5576 47.1108 27.4826 47.1108 28.6189C47.1108 29.7552 46.1949 30.6802 45.0697 30.6802Z" fill="#263544"/>
<path d="M44.9722 32.6884C43.9787 32.6884 43.1697 33.5054 43.1697 34.5086C43.1697 35.5119 43.9787 36.3289 44.9722 36.3289C45.9656 36.3289 46.7746 35.5119 46.7746 34.5086C46.7746 33.5054 45.9656 32.6884 44.9722 32.6884ZM44.9722 34.9187C44.7474 34.9187 44.5645 34.734 44.5645 34.5071C44.5645 34.2801 44.7474 34.0954 44.9722 34.0954C45.1969 34.0954 45.3798 34.2801 45.3798 34.5071C45.3798 34.734 45.1969 34.9187 44.9722 34.9187Z" fill="#263544"/>
<path d="M78.0925 8.51607L83.4581 16.8177C83.5898 17.0212 83.8114 17.137 84.0424 17.137C84.1121 17.137 84.1819 17.126 84.2516 17.1041C84.5492 17.0102 84.7491 16.7254 84.7398 16.4108L84.3368 3.26965C84.3306 3.06931 84.2408 2.88149 84.0889 2.75314C83.937 2.6248 83.7386 2.56689 83.5433 2.5935C77.7159 3.41364 77.9778 8.13261 77.9809 8.18113C77.9886 8.30008 78.0274 8.4159 78.0925 8.51607ZM82.9668 4.13205L83.2674 13.9456L79.3711 7.91818C79.3928 7.26081 79.6997 4.90524 82.9668 4.13205Z" fill="#263544"/>
<path d="M66.9103 21.064C66.5322 21.0014 66.1711 21.258 66.106 21.6415L64.2461 32.7542C64.1826 33.1376 64.4383 33.5008 64.818 33.5665C64.8568 33.5727 64.8971 33.5759 64.9358 33.5759C65.2706 33.5759 65.5651 33.3333 65.6224 32.9889L67.4822 21.8763C67.5458 21.4928 67.2901 21.1297 66.9103 21.064Z" fill="#263544"/>
<path d="M63.8152 21.0654C63.4355 20.9966 63.0743 21.2548 63.0077 21.6367L60.7604 34.5493C60.6938 34.9328 60.9464 35.2975 61.3261 35.3648C61.3664 35.3726 61.4083 35.3757 61.447 35.3757C61.7787 35.3757 62.0731 35.1347 62.1336 34.7935L64.3809 21.8809C64.4475 21.4974 64.1949 21.1327 63.8152 21.0654Z" fill="#263544"/>
<path d="M116.303 45.9406H103.395C106.363 43.3972 108.251 39.6048 108.251 35.3757C108.251 27.7377 102.098 21.524 94.5349 21.524C91.7498 21.524 89.1569 22.3677 86.9902 23.8139L86.2819 22.8278C88.8655 21.3253 91.5142 20.5615 94.1614 20.5615C100.214 20.5615 104.35 24.5699 104.39 24.6105C104.567 24.7858 104.824 24.8531 105.063 24.7874L107.892 24.0048C108.121 23.9422 108.302 23.7654 108.372 23.5368C108.443 23.3083 108.394 23.0595 108.242 22.8748C108 22.5821 102.235 15.7157 93.6019 15.7157C90.1875 15.7157 86.7918 16.8129 83.5092 18.9744L70.4129 0.754331C70.227 0.486688 69.8736 0.148612 69.2351 0.0359208C66.5135 -0.439889 60.2707 4.0083 59.5671 4.51698C59.254 4.74393 59.1827 5.18374 59.4059 5.4999C59.6306 5.81607 60.0661 5.88807 60.3792 5.66268C62.8512 3.8737 67.3783 1.14093 68.9948 1.42422C69.1979 1.46022 69.249 1.53535 69.2692 1.56352L82.3654 19.7789C76.8309 23.9313 75.1725 29.2779 74.7758 33.1329C74.3232 37.5341 75.357 40.9008 75.4004 41.0416C75.4918 41.3359 75.7615 41.5331 76.0653 41.5331C76.073 41.5331 76.0823 41.5331 76.0901 41.5331L78.9309 41.4282C79.134 41.4204 79.3246 41.3234 79.4501 41.1637C79.5772 41.0025 79.6284 40.7943 79.5896 40.5924C79.5834 40.5611 79.0053 37.4058 79.5447 33.6478C80.1863 29.1793 82.0539 25.8016 85.1025 23.5901L85.865 24.6497C82.7854 27.1915 80.8156 31.0559 80.8156 35.3773C80.8156 39.6987 82.7033 43.3988 85.6713 45.9422H76.321C75.9351 45.9422 75.6236 46.2567 75.6236 46.6465C75.6236 47.0362 75.9351 47.3508 76.321 47.3508H87.6427C89.6683 48.5435 92.0226 49.229 94.5318 49.229C97.041 49.229 99.4541 48.5262 101.498 47.3054C101.574 47.3336 101.655 47.3508 101.739 47.3508H116.299C116.685 47.3508 116.997 47.0362 116.997 46.6465C116.997 46.2567 116.685 45.9422 116.299 45.9422L116.303 45.9406ZM93.605 17.1228C99.8555 17.1228 104.615 21.1766 106.404 22.9546L105.068 23.324C103.955 22.3411 99.9005 19.1513 94.1629 19.1513C91.2244 19.1513 88.2952 20.0027 85.4589 21.6806L84.3337 20.1154C87.3684 18.1323 90.4867 17.1228 93.6065 17.1228H93.605ZM78.1622 33.4882C77.7577 36.3461 77.9514 38.8254 78.1033 40.0493L76.5969 40.1041C76.3411 39.0413 75.8405 36.4291 76.1645 33.2769C76.6899 28.1666 79.0503 24.0142 83.1853 20.9168L84.2888 22.4506C80.952 24.8876 78.8442 28.6737 78.1622 33.4882ZM82.2151 35.3757C82.2151 31.5223 83.9587 28.0743 86.6895 25.7891L88.1216 27.7816C85.9967 29.6144 84.6453 32.3378 84.6453 35.3757C84.6453 40.8835 89.0825 45.3646 94.5364 45.3646C99.9904 45.3646 104.428 40.8835 104.428 35.3757C104.428 29.8679 99.9904 25.3869 94.5364 25.3869C92.5898 25.3869 90.7749 25.9597 89.2421 26.9442L87.8132 24.9564C89.7474 23.6793 92.0567 22.9327 94.5364 22.9327C101.331 22.9327 106.858 28.5141 106.858 35.3757C106.858 42.2374 101.331 47.8188 94.5364 47.8188C87.7419 47.8188 82.2151 42.2374 82.2151 35.3757ZM94.5364 34.0266C95.2726 34.0266 95.8724 34.6323 95.8724 35.3757C95.8724 36.1192 95.2726 36.7249 94.5364 36.7249C93.8002 36.7249 93.2004 36.1192 93.2004 35.3757C93.2004 34.6323 93.8002 34.0266 94.5364 34.0266ZM94.5364 38.1336C96.0413 38.1336 97.2673 36.8971 97.2673 35.3757C97.2673 33.8544 96.0429 32.6179 94.5364 32.6179C94.1614 32.6179 93.8033 32.6946 93.4779 32.8339L92.3945 31.3282C93.0331 30.9823 93.763 30.7851 94.5364 30.7851C97.0425 30.7851 99.0821 32.8449 99.0821 35.3757C99.0821 37.9066 97.0425 39.9664 94.5364 39.9664C92.0303 39.9664 89.9907 37.9066 89.9907 35.3757C89.9907 34.133 90.4836 33.0029 91.2817 32.1765L92.3759 33.6979C92.021 34.1627 91.8071 34.745 91.8071 35.3757C91.8071 36.8955 93.0315 38.1336 94.538 38.1336H94.5364ZM88.5958 35.3757C88.5958 38.6845 91.2616 41.375 94.5364 41.375C97.8128 41.375 100.477 38.6829 100.477 35.3757C100.477 32.0685 97.8113 29.3765 94.5364 29.3765C93.4562 29.3765 92.4441 29.6707 91.57 30.181L90.0635 28.0852C91.3639 27.2682 92.8967 26.7955 94.5364 26.7955C99.2216 26.7955 103.033 30.6442 103.033 35.3757C103.033 40.1072 99.2216 43.956 94.5364 43.956C89.8512 43.956 86.0401 40.1072 86.0401 35.3757C86.0401 32.8057 87.1653 30.4987 88.943 28.9241L90.4526 31.0246C89.3103 32.1186 88.5958 33.6634 88.5958 35.3757Z" fill="#263544"/>
</g>
<defs>
<clipPath id="clip0_159_2">
<rect width="117" height="49.5405" fill="white"/>
</clipPath>
</defs>
</svg>
