<svg width="122" height="54" viewBox="0 0 122 54" fill="none" xmlns="http://www.w3.org/2000/svg">
<g clip-path="url(#clip0_159_27)">
<path d="M92.5668 18.7813C92.8392 20.1462 91.4435 21.1846 90.0565 21.1846H83.7808C82.3939 21.1846 81.2078 20.0631 81.2078 18.7517V14.7165C81.2078 13.4051 82.3939 12.4022 83.7808 12.4022H89.0524C90.4393 12.4022 91.1648 13.4359 91.5627 14.7616L92.5668 18.7825V18.7813Z" fill="#767F89"/>
<path d="M21.7855 36.4945C23.7385 37.6813 25.2284 39.5802 25.9677 41.8352H26.7496C27.4889 39.5802 28.9775 37.6813 30.9318 36.4945H21.7868H21.7855Z" fill="#515D69"/>
<path d="M91.9394 36.4945H44.8802C46.8333 37.6813 48.3231 39.5802 49.0624 41.8352H91.9406C93.3276 41.8352 94.3881 40.7136 94.3881 39.4022V38.8088C94.3881 36.7022 94.2313 36.4945 91.9406 36.4945H91.9394Z" fill="#515D69"/>
<path d="M3.40397 41.8352C4.14325 39.5802 5.63185 37.6813 7.58611 36.4945H3.07512C1.68819 36.4945 0.502075 37.4974 0.502075 38.8088V39.4022C0.502075 40.7136 1.68819 41.8352 3.07512 41.8352H3.40397Z" fill="#515D69"/>
<path d="M14.4969 53.5846C19.5226 53.5846 23.5967 49.7323 23.5967 44.9803C23.5967 40.2282 19.5226 36.3759 14.4969 36.3759C9.47121 36.3759 5.39709 40.2282 5.39709 44.9803C5.39709 49.7323 9.47121 53.5846 14.4969 53.5846Z" fill="#68727C"/>
<path d="M14.497 49.4901C17.1311 49.4901 19.2665 47.471 19.2665 44.9802C19.2665 42.4895 17.1311 40.4703 14.497 40.4703C11.8628 40.4703 9.72742 42.4895 9.72742 44.9802C9.72742 47.471 11.8628 49.4901 14.497 49.4901Z" fill="#BDC2C7"/>
<path d="M37.7171 53.5846C42.7428 53.5846 46.8169 49.7323 46.8169 44.9803C46.8169 40.2282 42.7428 36.3759 37.7171 36.3759C32.6914 36.3759 28.6173 40.2282 28.6173 44.9803C28.6173 49.7323 32.6914 53.5846 37.7171 53.5846Z" fill="#68727C"/>
<path d="M14.4969 46.5824C15.4328 46.5824 16.1914 45.8651 16.1914 44.9802C16.1914 44.0954 15.4328 43.3781 14.4969 43.3781C13.5611 43.3781 12.8025 44.0954 12.8025 44.9802C12.8025 45.8651 13.5611 46.5824 14.4969 46.5824Z" fill="#515D69"/>
<path d="M37.9682 49.4901C40.6023 49.4901 42.7377 47.471 42.7377 44.9802C42.7377 42.4895 40.6023 40.4703 37.9682 40.4703C35.334 40.4703 33.1986 42.4895 33.1986 44.9802C33.1986 47.471 35.334 49.4901 37.9682 49.4901Z" fill="#BDC2C7"/>
<path d="M37.9681 46.5824C38.9039 46.5824 39.6626 45.8651 39.6626 44.9802C39.6626 44.0954 38.9039 43.3781 37.9681 43.3781C37.0323 43.3781 36.2737 44.0954 36.2737 44.9802C36.2737 45.8651 37.0323 46.5824 37.9681 46.5824Z" fill="#515D69"/>
<path d="M110.39 53.5846C115.416 53.5846 119.49 49.7323 119.49 44.9803C119.49 40.2282 115.416 36.3759 110.39 36.3759C105.364 36.3759 101.29 40.2282 101.29 44.9803C101.29 49.7323 105.364 53.5846 110.39 53.5846Z" fill="#68727C"/>
<path d="M110.39 49.4901C113.024 49.4901 115.159 47.471 115.159 44.9802C115.159 42.4895 113.024 40.4703 110.39 40.4703C107.756 40.4703 105.62 42.4895 105.62 44.9802C105.62 47.471 107.756 49.4901 110.39 49.4901Z" fill="#BDC2C7"/>
<path d="M110.641 46.5824C111.577 46.5824 112.335 45.8651 112.335 44.9802C112.335 44.0954 111.577 43.3781 110.641 43.3781C109.705 43.3781 108.947 44.0954 108.947 44.9802C108.947 45.8651 109.705 46.5824 110.641 46.5824Z" fill="#515D69"/>
<path d="M84.0319 16.556C83.8763 16.556 83.7206 16.4955 83.6089 16.3768C83.4018 16.1561 83.4232 15.819 83.6554 15.6232L89.5031 10.7086C89.7365 10.5128 90.093 10.5329 90.3001 10.7525C90.5072 10.9733 90.4859 11.3103 90.2537 11.5061L84.4059 16.4207C84.298 16.5109 84.165 16.556 84.0307 16.556H84.0319Z" fill="#A8AEB4"/>
<path d="M89.7427 38.7495H67.2757C65.8893 38.7495 64.7654 39.8122 64.7654 41.1231V46.3451C64.7654 47.656 65.8893 48.7187 67.2757 48.7187H89.7427C91.1291 48.7187 92.253 47.656 92.253 46.3451V41.1231C92.253 39.8122 91.1291 38.7495 89.7427 38.7495Z" fill="#D4D7DA"/>
<path d="M89.7427 38.7495H67.2757C65.8887 38.7495 64.7654 39.8117 64.7654 41.1231V42.9484C67.8204 44.2955 72.6991 45.1666 78.1967 45.1666C84.0871 45.1666 89.2658 44.1661 92.253 42.6517V41.1219C92.253 39.8105 91.1297 38.7483 89.7427 38.7483V38.7495Z" fill="#EEEFF0"/>
<path d="M118.862 31.1146V27.2373C118.862 25.9259 118.408 24.389 116.979 24.1516L96.3712 20.9081L94.0655 12.4912C93.6262 11.1263 92.7551 10.1472 90.8096 10.1472H77.7562C76.3692 10.1472 75.1831 11.1501 75.1831 12.4615V32.1626C75.1831 33.474 76.3692 34.5956 77.7562 34.5956H94.3241C95.711 34.5956 96.7716 35.5984 96.7716 36.9099V40.6483H100.3L102.608 36.7318C103.424 35.4263 104.986 34.3582 106.373 34.3582H113.904C115.291 34.3582 117.168 35.6044 117.795 36.7318L118.674 38.3934H121.372V33.0432C121.372 33.0432 120.87 32.1828 118.862 31.1146ZM90.0566 21.1846H83.7808C82.3939 21.1846 81.2078 20.063 81.2078 18.7516V14.7164C81.2078 13.405 82.3939 12.4022 83.7808 12.4022H89.0524C90.4394 12.4022 91.1649 13.4359 91.5627 14.7615L92.5669 18.7825C92.8392 20.1473 91.4435 21.1858 90.0566 21.1858V21.1846Z" fill="#F26A21"/>
<path d="M78.459 25.8833C78.3034 25.8833 78.1478 25.8227 78.0361 25.7041C77.829 25.4833 77.8503 25.1462 78.0825 24.9504L88.2492 16.4054C88.4826 16.2095 88.8391 16.2297 89.0462 16.4493C89.2533 16.67 89.2319 17.0071 88.9997 17.2029L78.8331 25.748C78.7251 25.8382 78.5921 25.8833 78.4578 25.8833H78.459Z" fill="#A8AEB4"/>
<path d="M118.36 30.9165V35.3077L118.674 38.3934L121.435 37.8594L121.372 33.0433L118.36 30.9165Z" fill="white"/>
<path d="M116.979 24.1516L96.3712 20.9081L94.0655 12.4912C93.6262 11.1263 92.7551 10.1472 90.8096 10.1472H77.7562C76.3692 10.1472 75.1831 11.1501 75.1831 12.4615V24.2905C80.9241 26.6214 88.9244 28.0681 97.7757 28.0681C105.618 28.0681 112.792 26.9323 118.319 25.0524C118.024 24.5931 117.591 24.2525 116.979 24.1516ZM90.0566 21.1846H83.7808C82.3939 21.1846 81.2078 20.063 81.2078 18.7516V14.7164C81.2078 13.405 82.3939 12.4022 83.7808 12.4022H89.0524C90.4394 12.4022 91.1649 13.4359 91.5627 14.7615L92.5669 18.7825C92.8392 20.1473 91.4435 21.1858 90.0566 21.1858V21.1846Z" fill="#F58C55"/>
<path d="M97.0227 23.9143L96.5206 24.6264L97.0227 25.4572L103.236 26.644L103.863 25.5165L103.361 24.389L97.0227 23.9143Z" fill="white"/>
<path d="M31.2531 36.8743L32.7342 35.9011H19.9819L21.463 36.8743C23.3319 38.1015 24.7402 39.9007 25.4293 41.9384L25.5548 42.3099H27.1614L27.2869 41.9384C27.9759 39.8995 29.3842 38.1015 31.2531 36.8743ZM26.3581 41.2074C25.7368 39.598 24.7088 38.1395 23.3821 36.9693H29.3328C28.0061 38.1383 26.9781 39.5969 26.3568 41.2074H26.3581Z" fill="#263544"/>
<path d="M3.0751 42.3099H3.81564L3.94115 41.9384C4.63023 39.8995 6.0385 38.1015 7.90741 36.8743L9.38848 35.9011H3.0751C1.3794 35.9011 0 37.2054 0 38.8088V39.4022C0 41.0056 1.3794 42.3099 3.0751 42.3099ZM1.12963 38.8088C1.12963 37.7941 2.00195 36.9693 3.0751 36.9693H5.98829C4.65282 38.1466 3.61858 39.6182 2.99979 41.2406C1.96179 41.2026 1.12963 40.3932 1.12963 39.4022V38.8088Z" fill="#263544"/>
<path d="M14.5597 39.7357C11.536 39.7357 9.07593 42.0619 9.07593 44.9209C9.07593 47.7799 11.536 50.1061 14.5597 50.1061C17.5833 50.1061 20.0434 47.7799 20.0434 44.9209C20.0434 42.0619 17.5833 39.7357 14.5597 39.7357ZM14.5597 49.038C12.1586 49.038 10.2056 47.1913 10.2056 44.9209C10.2056 42.6505 12.1586 40.8038 14.5597 40.8038C16.9607 40.8038 18.9137 42.6505 18.9137 44.9209C18.9137 47.1913 16.9607 49.038 14.5597 49.038Z" fill="#263544"/>
<path d="M14.5597 42.7847C13.3146 42.7847 12.3004 43.7436 12.3004 44.9209C12.3004 46.0983 13.3146 47.0572 14.5597 47.0572C15.8048 47.0572 16.8189 46.0983 16.8189 44.9209C16.8189 43.7436 15.8048 42.7847 14.5597 42.7847ZM14.5597 45.9891C13.9371 45.9891 13.43 45.5096 13.43 44.9209C13.43 44.3323 13.9371 43.8528 14.5597 43.8528C15.1822 43.8528 15.6893 44.3323 15.6893 44.9209C15.6893 45.5096 15.1822 45.9891 14.5597 45.9891Z" fill="#263544"/>
<path d="M24.1615 44.9209C24.1615 39.9149 19.8539 35.8418 14.5597 35.8418C9.26548 35.8418 4.95782 39.9149 4.95782 44.9209C4.95782 47.736 6.31965 50.2568 8.45465 51.9231H1.12963C0.817103 51.9231 0.564819 52.1617 0.564819 52.4572C0.564819 52.7527 0.817103 52.9912 1.12963 52.9912H10.1667C10.1667 52.9912 10.1679 52.9912 10.1692 52.9912C11.4858 53.6345 12.9782 54 14.5597 54C16.1412 54 17.6335 53.6345 18.9502 52.9912C18.9502 52.9912 18.9514 52.9912 18.9527 52.9912H23.4712C23.7837 52.9912 24.036 52.7527 24.036 52.4572C24.036 52.1617 23.7837 51.9231 23.4712 51.9231H20.6647C22.7984 50.2568 24.1615 47.736 24.1615 44.9209ZM6.08745 44.9209C6.08745 40.5036 9.88803 36.9099 14.5597 36.9099C19.2313 36.9099 23.0319 40.5036 23.0319 44.9209C23.0319 49.3382 19.2313 52.9319 14.5597 52.9319C9.88803 52.9319 6.08745 49.3382 6.08745 44.9209Z" fill="#263544"/>
<path d="M37.9054 39.7357C34.8817 39.7357 32.4216 42.0619 32.4216 44.9209C32.4216 47.7799 34.8817 50.1061 37.9054 50.1061C40.929 50.1061 43.3891 47.7799 43.3891 44.9209C43.3891 42.0619 40.929 39.7357 37.9054 39.7357ZM37.9054 49.038C35.5043 49.038 33.5513 47.1913 33.5513 44.9209C33.5513 42.6505 35.5043 40.8038 37.9054 40.8038C40.3064 40.8038 42.2594 42.6505 42.2594 44.9209C42.2594 47.1913 40.3064 49.038 37.9054 49.038Z" fill="#263544"/>
<path d="M37.9054 42.7847C36.6603 42.7847 35.6461 43.7436 35.6461 44.9209C35.6461 46.0983 36.6603 47.0572 37.9054 47.0572C39.1505 47.0572 40.1646 46.0983 40.1646 44.9209C40.1646 43.7436 39.1505 42.7847 37.9054 42.7847ZM37.9054 45.9891C37.2828 45.9891 36.7757 45.5096 36.7757 44.9209C36.7757 44.3323 37.2828 43.8528 37.9054 43.8528C38.5279 43.8528 39.035 44.3323 39.035 44.9209C39.035 45.5096 38.5279 45.9891 37.9054 45.9891Z" fill="#263544"/>
<path d="M110.453 39.7357C107.429 39.7357 104.969 42.0619 104.969 44.9209C104.969 47.7799 107.429 50.1061 110.453 50.1061C113.476 50.1061 115.936 47.7799 115.936 44.9209C115.936 42.0619 113.476 39.7357 110.453 39.7357ZM110.453 49.038C108.052 49.038 106.099 47.1913 106.099 44.9209C106.099 42.6505 108.052 40.8038 110.453 40.8038C112.854 40.8038 114.807 42.6505 114.807 44.9209C114.807 47.1913 112.854 49.038 110.453 49.038Z" fill="#263544"/>
<path d="M110.453 42.7847C109.208 42.7847 108.193 43.7436 108.193 44.9209C108.193 46.0983 109.208 47.0572 110.453 47.0572C111.698 47.0572 112.712 46.0983 112.712 44.9209C112.712 43.7436 111.698 42.7847 110.453 42.7847ZM110.453 45.9891C109.83 45.9891 109.323 45.5096 109.323 44.9209C109.323 44.3323 109.83 43.8528 110.453 43.8528C111.075 43.8528 111.582 44.3323 111.582 44.9209C111.582 45.5096 111.075 45.9891 110.453 45.9891Z" fill="#263544"/>
<path d="M121.905 32.7466C121.897 32.7359 121.838 32.6541 121.716 32.5211C121.698 32.495 121.677 32.4689 121.654 32.4452C121.644 32.4345 121.606 32.3989 121.547 32.3431C121.193 31.9894 120.55 31.4376 119.49 30.8133V27.2363C119.49 25.6815 118.865 23.9167 117.104 23.6236L96.8419 20.437L94.6203 12.3263C94.6178 12.3192 94.6166 12.3121 94.6141 12.305C94.0179 10.4535 92.774 9.55273 90.811 9.55273H77.7575C76.0618 9.55273 74.6824 10.857 74.6824 12.4604V32.1615C74.6824 33.7649 76.0618 35.0692 77.7575 35.0692H94.3254C95.3985 35.0692 96.2709 35.8941 96.2709 36.9088V40.5879C96.2709 40.8834 96.5231 41.122 96.8357 41.122H100.301C100.506 41.122 100.695 41.0175 100.794 40.8478L103.099 36.9373C103.852 35.7362 105.259 34.8319 106.375 34.8319H113.906C115.106 34.8319 116.774 35.9795 117.291 36.91L118.169 38.5715C118.265 38.7519 118.461 38.867 118.675 38.867H121.436C121.749 38.867 122.001 38.6285 122.001 38.333V33.0421C122.001 32.9365 121.969 32.8333 121.906 32.7454L121.905 32.7466ZM120.87 37.8001H119.113V34.121C119.113 33.8254 118.861 33.5869 118.548 33.5869C118.236 33.5869 117.984 33.8254 117.984 34.121V35.9617C117.107 34.8473 115.368 33.7649 113.904 33.7649H106.374C104.84 33.7649 103.091 34.8485 102.122 36.4008C102.12 36.4044 102.117 36.4091 102.115 36.4127L99.9685 40.055H97.9201L100.28 33.219C100.376 32.9389 100.215 32.6374 99.9183 32.5461C99.6221 32.4547 99.3033 32.6078 99.2066 32.8879L97.4005 38.1217V36.9112C97.4005 35.3078 96.0211 34.0035 94.3254 34.0035H77.7575C76.6843 34.0035 75.812 33.1786 75.812 32.1639V12.4616C75.812 11.4647 76.6542 10.6529 77.701 10.6244C77.6997 10.641 77.6947 10.6565 77.6947 10.6743V28.2925C77.6947 28.4955 77.652 29.9624 78.7051 31.0269C79.4118 31.7414 80.4247 32.1034 81.7124 32.1034H90.4143C90.7269 32.1034 90.9792 31.8648 90.9792 31.5693C90.9792 31.2738 90.7269 31.0352 90.4143 31.0352H81.7124C80.7535 31.0352 80.0218 30.7896 79.5373 30.303C78.7616 29.5256 78.8231 28.3507 78.8231 28.3412C78.8231 28.3293 78.8231 28.3174 78.8231 28.3056V10.6743C78.8231 10.6565 78.8218 10.6399 78.8193 10.6221H90.8097C92.2644 10.6221 93.079 11.2155 93.5296 12.6064L95.8403 21.0423C95.8968 21.2464 96.0738 21.4007 96.2947 21.4351L116.913 24.6775C118.29 24.9065 118.36 26.8505 118.36 27.2374V30.2614C117.751 30.0063 117.091 29.8116 116.41 29.744C113.869 29.4912 105.747 28.5762 105.666 28.5667C105.357 28.5322 105.076 28.7411 105.038 29.0343C105.002 29.3274 105.223 29.5933 105.533 29.6277C105.614 29.6372 113.744 30.5522 116.292 30.8062C118.386 31.0151 120.367 32.749 120.766 33.1169C120.808 33.1596 120.843 33.1964 120.87 33.2273V37.8001Z" fill="#263544"/>
<path d="M92.1126 14.5943L92.1063 14.5706C91.5565 12.7381 90.5298 11.8088 89.0525 11.8088H83.7809C82.0852 11.8088 80.7058 13.1131 80.7058 14.7165V18.7517C80.7058 20.3551 82.0852 21.6594 83.7809 21.6594H90.0566C91.0306 21.6594 91.9996 21.244 92.5858 20.5758C93.069 20.0251 93.2598 19.3415 93.1217 18.6532L92.1126 14.5943ZM91.7159 19.8946C91.3444 20.3183 90.693 20.5913 90.0566 20.5913H83.7809C82.7078 20.5913 81.8354 19.7664 81.8354 18.7517V14.7165C81.8354 13.7018 82.7078 12.877 83.7809 12.877H89.0525C89.6399 12.877 90.4821 13.0823 91.0156 14.8506L92.0134 18.8609C92.0849 19.2383 91.9858 19.586 91.7159 19.8934V19.8946Z" fill="#263544"/>
<path d="M91.9393 35.9011H73.5514V3.30409C73.5514 0.636138 71.4515 0.0451054 71.3624 0.0213692C71.0612 -0.0593341 70.7499 0.10682 70.6658 0.390468C70.5817 0.674116 70.7562 0.969633 71.0562 1.04915C71.07 1.05271 72.423 1.43605 72.423 3.30409V35.9023H71.2934V5.203C71.2934 2.53504 69.1935 1.94401 69.1044 1.92027C68.8032 1.83957 68.4894 2.00453 68.4041 2.28818C68.3187 2.57183 68.4907 2.86616 68.7906 2.94686C68.8471 2.96348 70.1638 3.367 70.1638 5.20418V35.9035H43.0778L44.5588 36.8767C46.4277 38.1038 47.836 39.903 48.5251 41.9408L48.6506 42.3123H64.2646V46.2881C64.2646 47.8915 65.644 49.1958 67.3397 49.1958H89.8068C91.5025 49.1958 92.8819 47.8915 92.8819 46.2881V42.171C94.1182 41.7936 95.0156 40.6982 95.0156 39.4046V38.8112C95.0156 37.7502 94.9755 36.9609 94.4583 36.4613C93.9713 35.9901 93.2283 35.9035 91.9405 35.9035L91.9393 35.9011ZM91.751 46.2857C91.751 47.3004 90.8787 48.1253 89.8055 48.1253H88.6131V42.4286C88.6131 42.1331 88.3608 41.8945 88.0483 41.8945C87.7358 41.8945 87.4835 42.1331 87.4835 42.4286V48.1253H78.9485V42.4286C78.9485 42.1331 78.6962 41.8945 78.3837 41.8945C78.0712 41.8945 77.8189 42.1331 77.8189 42.4286V48.1253H69.6605V42.4286C69.6605 42.1331 69.4082 41.8945 69.0956 41.8945C68.7831 41.8945 68.5308 42.1331 68.5308 42.4286V48.1253H67.3384C66.2653 48.1253 65.393 47.3004 65.393 46.2857V41.0637C65.393 40.049 66.2653 39.2242 67.3384 39.2242H73.1749V44.8022C73.1749 45.0977 73.4271 45.3363 73.7397 45.3363C74.0522 45.3363 74.3045 45.0977 74.3045 44.8022V39.2242H82.5884V44.8022C82.5884 45.0977 82.8407 45.3363 83.1533 45.3363C83.4658 45.3363 83.7181 45.0977 83.7181 44.8022V39.2242H89.8055C90.8787 39.2242 91.751 40.049 91.751 41.0637V46.2857ZM93.8847 39.4022C93.8847 40.0941 93.4781 40.6958 92.8794 41.0092C92.848 39.4307 91.4824 38.1561 89.8055 38.1561H67.3384C65.6427 38.1561 64.2633 39.4604 64.2633 41.0637V41.2418H49.4664C48.8477 39.6182 47.8134 38.1466 46.4779 36.9692H91.9405C92.8204 36.9692 93.4479 37.0096 93.6513 37.2054C93.8684 37.4155 93.886 38.1121 93.886 38.8088V39.4022H93.8847Z" fill="#263544"/>
<path d="M86.6049 22.9648H81.4589C81.1463 22.9648 80.894 23.2034 80.894 23.4989C80.894 23.7944 81.1463 24.033 81.4589 24.033H86.6049C86.9175 24.033 87.1698 23.7944 87.1698 23.4989C87.1698 23.2034 86.9175 22.9648 86.6049 22.9648Z" fill="#263544"/>
<path d="M103.182 24.0947L97.7242 23.2948C97.6414 23.2829 97.5573 23.277 97.4732 23.277C96.6636 23.277 95.9859 23.8265 95.8616 24.5837C95.7951 24.9907 95.8993 25.3978 96.1578 25.7313C96.4151 26.0636 96.7942 26.282 97.2247 26.3449L102.682 27.1448C102.765 27.1567 102.849 27.1626 102.933 27.1626C103.743 27.1626 104.42 26.6131 104.545 25.8559C104.611 25.4488 104.507 25.0406 104.248 24.7083C103.991 24.376 103.612 24.1576 103.182 24.0947ZM103.428 25.6921C103.386 25.9461 103.126 26.1289 102.854 26.0885L97.3966 25.2886C97.123 25.2483 96.9348 25.005 96.9774 24.7474C97.0151 24.5184 97.2272 24.3451 97.472 24.3451C97.4983 24.3451 97.5247 24.3475 97.5498 24.351L103.007 25.151C103.14 25.1699 103.256 25.2376 103.336 25.3397C103.415 25.4417 103.448 25.5675 103.426 25.6921H103.428Z" fill="#263544"/>
<path d="M51.2098 51.9231H44.0103C46.1441 50.2568 47.5072 47.736 47.5072 44.9209C47.5072 39.9149 43.1995 35.8418 37.9053 35.8418C32.6111 35.8418 28.3035 39.9149 28.3035 44.9209C28.3035 47.736 29.6653 50.2568 31.8003 51.9231H28.8683C28.5558 51.9231 28.3035 52.1617 28.3035 52.4572C28.3035 52.7527 28.5558 52.9912 28.8683 52.9912H33.3868C33.4232 52.9912 33.4596 52.9877 33.4935 52.9806C34.8152 53.6298 36.3151 54 37.9053 54C39.4956 54 40.9792 53.6345 42.2958 52.9912H51.2098C51.5224 52.9912 51.7747 52.7527 51.7747 52.4572C51.7747 52.1617 51.5224 51.9231 51.2098 51.9231ZM29.4331 44.9209C29.4331 40.5036 33.2337 36.9099 37.9053 36.9099C42.577 36.9099 46.3775 40.5036 46.3775 44.9209C46.3775 49.3382 42.577 52.9319 37.9053 52.9319C33.2337 52.9319 29.4331 49.3382 29.4331 44.9209Z" fill="#263544"/>
<path d="M120.745 51.9231H116.558C118.691 50.2568 120.054 47.736 120.054 44.9209C120.054 39.9149 115.747 35.8418 110.453 35.8418C105.158 35.8418 100.851 39.9149 100.851 44.9209C100.851 47.736 102.213 50.2568 104.348 51.9231H97.0226C96.71 51.9231 96.4578 52.1617 96.4578 52.4572C96.4578 52.7527 96.71 52.9912 97.0226 52.9912H106.06C106.06 52.9912 106.061 52.9912 106.062 52.9912C107.379 53.6345 108.871 54 110.453 54C112.034 54 113.526 53.6345 114.843 52.9912H120.745C121.057 52.9912 121.31 52.7527 121.31 52.4572C121.31 52.1617 121.057 51.9231 120.745 51.9231ZM101.98 44.9209C101.98 40.5036 105.781 36.9099 110.453 36.9099C115.124 36.9099 118.925 40.5036 118.925 44.9209C118.925 49.3382 115.124 52.9319 110.453 52.9319C105.781 52.9319 101.98 49.3382 101.98 44.9209Z" fill="#263544"/>
</g>
<defs>
<clipPath id="clip0_159_27">
<rect width="122" height="54" fill="white"/>
</clipPath>
</defs>
</svg>
